nColumns=19
nRows=40
DataType=double
version=3
OpenSimVersion=4.1
endheader
time	ground_force_1_vx	ground_force_1_vy	ground_force_1_vz	ground_force_1_px	ground_force_1_py	ground_force_1_pz	ground_force_1_mx	ground_force_1_my	ground_force_1_mz	ground_force_2_vx	ground_force_2_vy	ground_force_2_vz	ground_force_2_px	ground_force_2_py	ground_force_2_pz	ground_force_2_mx	ground_force_2_my	ground_force_2_mz
0	0	0	0	0.079262	0	-0.173346	0	0	0	0	0	0	0.734251	0	-0.264507	0	0	0
0.01	0	0	0	0.079262	0	-0.173346	0	0	0	0	0	0	0.734251	0	-0.264507	0	0	0
0.02	-1.86439	9.22623	1.29566	0.0794755	0.0018	-0.173464	0	0.046263	0	0	0	0	0.734251	0	-0.264507	0	0	0
0.03	-8.12261	86.9234	9.04322	0.0884452	0.006	-0.178212	0	0.156174	0	0	0	0	0.734251	0	-0.264507	0	0	0
0.04	-15.0281	183.462	15.2632	0.0940537	0.006	-0.180062	0	0.0321174	0	0	0	0	0.734251	0	-0.264507	0	0	0
0.05	-33.3706	256.219	18.2381	0.0982695	0.006	-0.18078	0	-0.0270766	0	0	0	0	0.734251	0	-0.264507	0	0	0
0.06	-55.2997	309.15	23.09	0.102493	0.006	-0.182292	0	0.634632	0	0	0	0	0.734251	0	-0.264507	0	0	0
0.07	-72.2755	356.553	28.9985	0.107341	0.006	-0.183031	0	2.06173	0	0	0	0	0.734251	0	-0.264507	0	0	0
0.08	-87.6857	408.285	30.0181	0.115165	0.006	-0.182065	0	3.01751	0	0	0	0	0.734251	0	-0.264507	0	0	0
0.09	-111.153	479.205	19.4654	0.127665	0.006	-0.179291	0	2.29304	0	0	0	0	0.734251	0	-0.264507	0	0	0
0.1	-139.556	560.308	2.29463	0.140214	0.006	-0.176452	0	0.975813	0	0	0	0	0.734251	0	-0.264507	0	0	0
0.11	-156.162	618.903	-7.98162	0.148599	0.006	-0.175047	0	0.668105	0	0	0	0	0.734251	0	-0.264507	0	0	0
0.12	-162.465	650.811	-13.3171	0.154274	0.006	-0.17431	0	0.836616	0	0	0	0	0.734251	0	-0.264507	0	0	0
0.13	-165.909	675.954	-20.5755	0.158827	0.006	-0.173415	0	0.697848	0	0	0	0	0.734251	0	-0.264507	0	0	0
0.14	-166.019	698.599	-27.5948	0.162439	0.006	-0.172557	0	0.437272	0	0	0	0	0.734251	0	-0.264507	0	0	0
0.15	-163.12	714.444	-31.011	0.165344	0.006	-0.171974	0	0.333176	0	0	0	0	0.734251	0	-0.264507	0	0	0
0.16	-158.823	726.789	-33.0929	0.167805	0.006	-0.171584	0	0.182665	0	0	0	0	0.734251	0	-0.264507	0	0	0
0.17	-151.376	735.429	-34.4736	0.169439	0.006	-0.171351	0	-0.0369497	0	0	0	0	0.734251	0	-0.264507	0	0	0
0.18	-141.328	737.908	-35.06	0.170696	0.006	-0.171147	0	-0.285877	0	0	0	0	0.734251	0	-0.264507	0	0	0
0.19	-129.73	731.287	-34.6642	0.171906	0.006	-0.1709	0	-0.539918	0	0	0	0	0.734251	0	-0.264507	0	0	0
0.2	-117.369	716.1	-33.5073	0.173344	0.006	-0.1706	0	-0.755381	0	0	0	0	0.734251	0	-0.264507	0	0	0
0.21	-106.581	695.334	-32.0707	0.175509	0.006	-0.170228	0	-0.925247	0	0	0	0	0.734251	0	-0.264507	0	0	0
0.22	-98.4054	669.602	-30.3682	0.178279	0.006	-0.169823	0	-1.08391	0	0	0	0	0.734251	0	-0.264507	0	0	0
0.23	-91.3522	640.446	-28.1632	0.181205	0.006	-0.169563	0	-1.25512	0	0	0	0	0.734251	0	-0.264507	0	0	0
0.24	-84.1396	611.766	-25.5692	0.184045	0.006	-0.169501	0	-1.41603	0	0	0	0	0.734251	0	-0.264507	0	0	0
0.25	-76.1986	586.643	-22.7257	0.1863	0.006	-0.169603	0	-1.58321	0	0	0	0	0.734251	0	-0.264507	0	0	0
0.26	-67.2469	565.74	-19.9111	0.187679	0.006	-0.169822	0	-1.78242	0	0	0	0	0.734251	0	-0.264507	0	0	0
0.27	-58.2609	547.633	-17.6735	0.188538	0.006	-0.170064	0	-1.97789	0	0	0	0	0.734251	0	-0.264507	0	0	0
0.28	-50.0029	530.373	-16.0162	0.189345	0.006	-0.170199	0	-2.1487	0	0	0	0	0.734251	0	-0.264507	0	0	0
0.29	-42.4623	513.063	-15.1662	0.190283	0.006	-0.170125	0	-2.32175	0	0	0	0	0.734251	0	-0.264507	0	0	0
0.3	-35.5364	496.139	-15.1354	0.191465	0.006	-0.169855	0	-2.48032	0	0	0	0	0.734251	0	-0.264507	0	0	0
0.31	-29.0741	480.497	-15.5029	0.193083	0.006	-0.169471	0	-2.60569	0	0	0	0	0.734251	0	-0.264507	0	0	0
0.32	-23.2463	467.181	-15.9896	0.195205	0.006	-0.168981	0	-2.72615	0	0	0	0	0.734251	0	-0.264507	0	0	0
0.33	-18.469	456.717	-16.3803	0.197719	0.006	-0.168396	0	-2.86618	0	0	0	0	0.734251	0	-0.264507	0	0	0
0.34	-15.0335	449.659	-16.4208	0.200728	0.006	-0.167985	0	-3.01618	0	0	0	0	0.734251	0	-0.264507	0	0	0
0.35	-12.5178	446.44	-15.9942	0.20417	0.006	-0.167821	0	-3.13993	0	0	0	0	0.734251	0	-0.264507	0	0	0
0.36	-10.3598	445.625	-15.3932	0.207537	0.006	-0.167746	0	-3.27321	0	0	0	0	0.734251	0	-0.264507	0	0	0
0.37	-8.30012	447.15	-14.8831	0.210797	0.006	-0.16773	0	-3.40628	0	0	0	0	0.734251	0	-0.264507	0	0	0
0.38	-6.25648	451.449	-14.636	0.214035	0.006	-0.167676	0	-3.53508	0	0	0	0	0.734251	0	-0.264507	0	0	0
0.39	-4.20393	458.449	-14.5883	0.217149	0.006	-0.167518	0	-3.68733	0	0	0	0	0.734251	0	-0.264507	0	0	0
